<svg xmlns="http://www.w3.org/2000/svg" viewBox="0 0 397.29 255"><defs><style>.cls-1{fill:#fff;}</style></defs><g id="Camada_2" data-name="Camada 2"><g id="Camada_1-2" data-name="Camada 1"><path class="cls-1" d="M394.05,153.51c-.56,1.69-2.15,2.48-3.35,3.54a156.65,156.65,0,0,1-30.52,20.67,250.46,250.46,0,0,1-32,14.06c-10.26,3.69-20.67,6.82-31.23,9.51q-14.83,3.78-29.95,6.28c-6.88,1.13-13.79,2-20.72,2.86-8,1-16.08,1.59-24.13,2.1-9.6.61-19.23.58-28.85.45-5.65-.07-11.32,0-16.95-.44-7.83-.56-15.67-1.13-23.48-2.1-7-.87-13.93-1.89-20.85-3.11-7.55-1.33-15-3.11-22.46-5a247.44,247.44,0,0,1-31-10.05A192.46,192.46,0,0,1,47.94,177a134.47,134.47,0,0,1-25.17-19.82,88,88,0,0,1-12.44-15.9,71.12,71.12,0,0,1-8.68-20.73,59.13,59.13,0,0,1-.49-25.47A71.58,71.58,0,0,1,11,70.78,97.29,97.29,0,0,1,31.06,48.34a158.64,158.64,0,0,1,33.2-21.05A244.38,244.38,0,0,1,93.62,15.56c8.25-2.73,16.61-5,25.06-7,7.79-1.8,15.68-3.21,23.6-4.4C150.37,3,158.5,2,166.65,1.36a386,386,0,0,1,51.8-.84c8,.46,15.92,1,23.85,1.82,9.57,1,19.1,2.32,28.58,4.05Q282,8.42,293.07,11q14.32,3.39,28.29,8.06a268.15,268.15,0,0,1,27.82,11,193.28,193.28,0,0,1,26.24,14.59A133.15,133.15,0,0,1,392,57.39a5,5,0,0,1,.49.62l0,0c-1.25,0-1.76-1.13-2.55-1.76a151,151,0,0,0-24-15.85,192.69,192.69,0,0,0-20.77-9.54,246,246,0,0,0-23.91-7.92c-6.08-1.68-12.2-3.22-18.37-4.52C296.3,17,289.63,15.9,283,14.93c-7.3-1-14.63-1.79-21.95-2.51-3.68-.37-7.37-.53-11.06-.7q-16.29-.72-32.6-.26c-8,.22-15.94.72-23.89,1.44-8.48.78-16.93,1.74-25.33,3.07-7.36,1.16-14.69,2.48-22,4.1-7.91,1.76-15.77,3.7-23.55,5.95-7.57,2.18-15,4.7-22.39,7.47A210.31,210.31,0,0,0,64,51C52.58,58,42.09,66.12,33.76,76.79,28.82,83.11,25,90,23.34,97.89a40.53,40.53,0,0,0,1.75,23.43c4.52,11.86,12.65,20.94,22.13,29,10.07,8.56,21.36,15.23,33.17,21a243.83,243.83,0,0,0,29.32,11.91c9.42,3.19,19,5.9,28.62,8.22,9.19,2.22,18.47,4,27.81,5.53,7.86,1.27,15.75,2.22,23.66,3.11,4.15.47,8.32.79,12.49,1.07,14.65,1,29.33,1,44,.54,8.89-.3,17.75-1.1,26.6-2.09q15-1.67,29.77-4.71a265.33,265.33,0,0,0,35.49-9.9,200.32,200.32,0,0,0,30.27-13.49,136.32,136.32,0,0,0,17.42-11.32c.32-.25.91-.4.77-.9s-.73-.28-1.13-.3a1.4,1.4,0,0,1-1.16-.44c-1.45-1.72-2.45-1.66-4,0a2.34,2.34,0,0,1-2.45.3c-.94-.28-.16-1,0-1.49.79-2.53,1.76-5,2.5-7.55.33-1.14,1-1.21,1.93-1.19s1.73,0,2.09,1.23c.73,2.53,1.74,5,2.52,7.51.39,1.27.7,1.69,1.87.61,1.7-1.58,3.54-3,5.31-4.51Zm-11.7-1.15c-.58,1.12-1,1.89-.5,2.72a.7.7,0,0,0,1,0C383.37,154.25,382.74,153.53,382.35,152.36Z"/><path class="cls-1" d="M307.08,127.67c2.79-5.64,5.41-10.91,8-16.18q6.07-12.31,12.13-24.65,4.13-8.41,8.18-16.88c.61-1.25,1.26-2.09,2.91-1.9a32.21,32.21,0,0,0,5.38,0,2,2,0,0,1,2.12,1.32q8.29,17.55,16.61,35.08,7.32,15.4,14.7,30.78c.19.39.31.81.49,1.2.31.63,0,.75-.55.75H366c-.65,0-.93-.45-1.17-1-2.73-5.54-5.5-11.07-8.17-16.65a2.09,2.09,0,0,0-2.24-1.35q-14,.06-28.05,0a1.92,1.92,0,0,0-2,1.19c-2.81,5.61-5.69,11.17-8.49,16.78a1.48,1.48,0,0,1-1.56,1c-5.44,0-10.87,0-16.31,0a2.47,2.47,0,0,1-2-1.11q-6.14-7.09-12.25-14.22-6.48-7.56-12.93-15.13-6.84-8-13.71-15.94c-.63-.73-1.32-1.4-2-2.15a3.43,3.43,0,0,0-.52,2.09c0,14.89,0,29.78.05,44.66,0,1.44-.33,1.86-1.79,1.8-3-.11-6-.07-9,0-1.07,0-1.39-.36-1.38-1.42q0-33.17,0-66.34c0-1.06.28-1.41,1.37-1.38,2.5.08,5,0,7.5,0a1.47,1.47,0,0,1,1.39.55c2.9,3.67,5.88,7.29,8.83,10.92,5.23,6.45,10.66,12.74,16.18,19q5.8,6.51,11.63,13a54.45,54.45,0,0,1,4,5c.21.29.44.76.85.66.58-.13.37-.7.37-1.1q0-9.28,0-18.58c0-9.29,0-18.59,0-27.88,0-1.15.19-1.62,1.49-1.57,3,.11,6.09.1,9.13,0,1.24,0,1.53.3,1.53,1.52q-.06,27.54,0,55.1A7.44,7.44,0,0,0,307.08,127.67ZM340.77,87a4.16,4.16,0,0,0-1.36,1.71c-2.82,5.67-5.62,11.36-8.47,17-.54,1.07-.32,1.32.86,1.31,5.76,0,11.52,0,17.28,0,1.2,0,1.59-.16.95-1.43-1.95-3.9-3.73-7.88-5.68-11.78C343.21,91.53,342.33,89.08,340.77,87Z"/><path class="cls-1" d="M173.65,110.91q0-12.3,0-24.61c0-1.23.34-1.82,1.76-1.77,3.26.11,6.53.12,9.79,0,1.49,0,1.95.39,1.95,1.89,0,10.37,0,20.75,0,31.12q0,4.24-.07,8.47c0,.82.21,1.19,1.1,1.17,6.13-.15,12.28.32,18.4-.33,5.9-.63,11.4-2.42,15.9-6.43A18.87,18.87,0,0,0,228.36,109a35.42,35.42,0,0,0-.61-14.6,17.5,17.5,0,0,0-11.58-12.9,34,34,0,0,0-11.79-1.81c-9.68,0-19.35,0-29,0-1.34,0-1.79-.31-1.72-1.73.13-2.81.09-5.64,0-8.47,0-1,.18-1.45,1.32-1.44,11.14,0,22.3-.24,33.43.15,9.28.33,17.61,3.51,24,10.63,4.7,5.2,6.81,11.49,7.68,18.31A43.09,43.09,0,0,1,240,109.5a29.86,29.86,0,0,1-7.83,16.34c-6.49,6.77-14.65,9.81-23.77,10.77-11.11,1.16-22.25.34-33.37.62-1.21,0-1.45-.48-1.45-1.55,0-8.26,0-16.51,0-24.77Z"/><path class="cls-1" d="M55.81,127.82q0-11-.08-22c0-.5.34-1.21-.27-1.46s-.91.45-1.26.82c-1.5,1.56-3,3.16-4.45,4.71s-3.08,1.23-4-.66c-1.08-2.17-.67-4.3,1.18-6.23Q55,94.6,63.13,86.19l30.3-31.52c1.41-1.46,2.78-3,4.21-4.4s2.91-1.44,4.14.37q2.93,4.32,5.66,8.74c.69,1.11,1.06,1.51,2.16.29,2.09-2.34,4.36-4.51,6.6-6.71,1.71-1.68,2.79-1.63,4.37.12Q133.79,67.65,147,82.22q6.06,6.66,12.14,13.3a6.53,6.53,0,0,1,.93,6.67c-1.21,2.25-2.92,2.52-4.66.67-3.81-4.07-7.55-8.21-11.39-12.25-7.5-7.87-14.54-16.17-22.56-23.54a21,21,0,0,1-2.32-2.49c-.91-1.16-1.76-1-2.67-.09-1.35,1.33-2.69,2.67-4,4Q101.37,79.25,90.28,90c-1.75,1.7-3.88,1.2-4.69-1.16A5.78,5.78,0,0,1,87,82.33c5.28-5.23,10.42-10.58,15.67-15.84a1.4,1.4,0,0,0,.17-2.19A48.71,48.71,0,0,1,100,60c-.71-1.21-1.28-1.15-2.2-.19-3,3.22-6.16,6.39-9.25,9.58Q75.69,82.61,62.86,95.84a5,5,0,0,0-1.52,3.77c0,9,0,17.93,0,26.9-.16.19-.35.57-.48.56C59.12,126.83,57.56,128,55.81,127.82Z"/><path class="cls-1" d="M55.81,127.82c1.75.19,3.31-1,5.08-.75.13,0,.32-.37.48-.56,1,.65,2,0,2.93-.07,10.09-1.33,20.2-2.56,30.4-2.16a144.54,144.54,0,0,1,27.94,3.37,104,104,0,0,1,20.94,7c.44.21.88.42,1.3.66a4.87,4.87,0,0,1,.61.52c-1.17.39-2.19.81-3.25,1.06a122.79,122.79,0,0,0-12.94,3.94,4.16,4.16,0,0,1-3.16-.1A109.4,109.4,0,0,0,99.75,133,161.33,161.33,0,0,0,77.48,131c-6.86-.19-13.68.13-20.5.5-4.52.25-9,1-13.51,1.54-.91.1-1.84,0-3.19,0a62.47,62.47,0,0,1,6.61-2.61C49.79,129.29,52.94,129,55.81,127.82Z"/><path class="cls-1" d="M171,129.62c-2.63.65-4.93.79-7.13,1.39-1.77.48-3.61.66-5.38,1.11a3,3,0,0,1-2.35-.27,88,88,0,0,0-19.72-8,122.65,122.65,0,0,0-15.67-3.22c-9.44-1.34-18.92-1.32-28.51-1.28,3.74-3,31.29-4.13,40.28-2.59C145.93,119.05,158.94,122.12,171,129.62Z"/><path class="cls-1" d="M150.7,82.13c-2.92-3.12-5.37-6.08-8.17-8.65a10.6,10.6,0,0,1-3.63-9.43c.35-4.3.08-4.32,4.4-4.32,2,0,4,0,6,0,.91,0,1.39.18,1.38,1.25C150.68,67.86,150.7,74.75,150.7,82.13Z"/><path class="cls-1" d="M295.82,154.29c-.07,1.23-.22,2.47-.2,3.7s-.65,1-1.39,1-1-.45-1-1.13c0-2.72,0-5.43,0-8.15,0-.75.25-1,1-1.06,2.6-.14,2.85,0,3.46,2.54.13.52.24,1.05.37,1.57,0,.15.12.28.36.83a12.59,12.59,0,0,0,1-3.35c.09-2.28,1.83-1.41,3-1.56,1.4-.17,1.21.83,1.21,1.7,0,2.44-.07,4.89,0,7.33,0,1.1-.52,1.26-1.35,1.3s-1.31-.36-1.21-1.27a2.82,2.82,0,0,0,0-.65c-.06-.38.21-1-.51-1-.56,0-.43.49-.56.82-.32.86-.09,2.18-1.71,2-.69-.06-1.06-.15-1.23-.93-.28-1.31-.74-2.58-1.12-3.87Z"/><path class="cls-1" d="M142.12,153.71v3.58c0,.67.32,1.57-.73,1.67s-2,.43-2.64-.68-1.15-1.94-1.7-2.93c-.19-.36-.39-.73-.82-.62s-.23.55-.24.84a10.69,10.69,0,0,0,0,1.79c.11,1.09-.09,1.7-1.44,1.68s-1.5-.57-1.47-1.69c.07-2.33,0-4.67,0-7,0-.58-.37-1.53.6-1.58s2.07-.6,2.71.74c.49,1,1.15,2,1.73,2.93.2.33.39.72.86.55s.25-.55.26-.85a10.7,10.7,0,0,0,0-1.79c-.18-1.38.38-1.8,1.73-1.67.81.08,1.16.25,1.11,1.13-.07,1.3,0,2.6,0,3.9Z"/><path class="cls-1" d="M318.09,153.76a.86.86,0,0,1,0-.16c.1-1.59-.72-4,.35-4.6,1.37-.81,3.56-.37,5.38-.25,2.16.16,3,1.85,2,3.84a1.15,1.15,0,0,0,.19,1.53c1.5,1.83.48,5-2.15,4.75a33.61,33.61,0,0,0-4.7.11c-.9.05-1.09-.36-1.06-1.16.05-1.35,0-2.7,0-4.06Zm4,2.8c.77,0,1.5,0,1.52-.88s-.88-.91-1.51-1-1.06.15-1.1,1C321,156.64,321.55,156.6,322.1,156.56Zm-.27-5.65c-.49-.06-.8.16-.82.89s.44.8,1,.83,1.26-.16,1.26-.88S322.6,150.94,321.83,150.91Z"/><path class="cls-1" d="M167.38,153.85a35.59,35.59,0,0,0,0-3.58c-.15-1.38.44-1.68,1.66-1.58,1.46.11,2.95-.05,4.38.17a2.75,2.75,0,0,1,1.69,4.72c-.74.8-.79,1.27-.12,2a2,2,0,0,1,.57,1.14c0,.8,1.46,1.41.49,2.19s-3-.15-3.51-1.26c-.05-.1-.12-.18-.16-.28-.32-.84-.53-2.21-1.48-2-1.18.21-.32,1.46-.3,2.23,0,1-.28,1.52-1.38,1.44-.95-.08-2,.19-1.85-1.44a35.85,35.85,0,0,0,0-3.74Zm3.75-3c-.24,0-.79.12-.76.94,0,.67.33,1.09,1.11,1.07s1.31-.36,1.35-1.08S172.18,151,171.13,150.89Z"/><path class="cls-1" d="M209.52,158.82c-3.34.48-3.34.48-4.58-2.3a4,4,0,0,0-.25-.6c-.25-.34-.42-.91-.88-.85s-.34.69-.39,1.08a6.38,6.38,0,0,0,0,1c0,2-.1,2-2,1.88-.84,0-1.11-.34-1.09-1.17,0-2.66,0-5.32,0-8,0-1,.34-1.21,1.23-1.17,1.3.06,2.61,0,3.91,0s2.45.19,3,1.46a2.88,2.88,0,0,1-.7,3.68.83.83,0,0,0-.19,1.27C208.42,156.21,208.67,157.57,209.52,158.82Zm-5.1-5.91a1.06,1.06,0,0,0,1.33-1c.06-.93-.63-.94-1.33-1s-1.16.22-1.15,1.1S203.75,153,204.42,152.91Z"/><path class="cls-1" d="M253.83,159a6.44,6.44,0,0,0-.9,0,2.73,2.73,0,0,1-3.57-2.24,3.56,3.56,0,0,0-.56-1.16c-.18-.24-.52-.54-.76-.52-.51.06-.39.56-.38.92s.05.76.05,1.14c0,1.82-.71,2.33-2.51,1.89-.54-.13-.51-.46-.51-.83,0-2.87,0-5.74,0-8.61,0-.47,0-.89.66-.84,1.88.13,3.78-.26,5.66.24,2,.54,3,2.72,1.57,4.29-1,1.08-.79,1.76-.12,2.77A22.18,22.18,0,0,1,253.83,159Zm-5.29-8.05c-.6-.07-1,.16-.93,1s.36,1,1.1,1,1.45-.33,1.43-1.16S249.32,150.94,248.54,150.91Z"/><path class="cls-1" d="M361.47,153.84c0-1.19.07-2.39,0-3.58s.18-1.7,1.47-1.58,2.5,0,3.74,0,2.45.36,3,1.77a2.91,2.91,0,0,1-.83,3.38c-.54.53-.64.89-.11,1.48a3.27,3.27,0,0,1,.78,1.39c.16.74,1.39,1.43.4,2.19-.84.64-2.79-.23-3.3-1.26-.39-.77-.77-1.55-1.21-2.29a.89.89,0,0,0-.68-.32c-.35,0-.31.37-.31.63a9.73,9.73,0,0,0,0,1.62c.2,1.36-.36,1.8-1.7,1.73-1,0-1.42-.25-1.26-1.31a12.53,12.53,0,0,0,0-1.94v-1.95Zm5.23-2.28c-.07-.61-.71-.61-1.38-.64s-1,.22-.94.93.49,1,1.16,1S366.78,152.71,366.7,151.56Z"/><path class="cls-1" d="M237.7,148.7c3.13,0,4.73,1.78,4.71,5.22s-1.71,5.19-4.79,5.2c-3.39,0-4.86-1.79-4.86-5.26C232.75,150,234.94,148.42,237.7,148.7Zm1.62,5.23h-.09a10.65,10.65,0,0,0,0-1.13c-.1-.85-.38-1.56-1.4-1.65a1.57,1.57,0,0,0-1.86,1.35,5.13,5.13,0,0,0,.28,3.45c.38.76,1,.6,1.67.64a1.06,1.06,0,0,0,1.15-.91A16.56,16.56,0,0,0,239.32,153.93Z"/><path class="cls-1" d="M222.17,153.82c0-.43-.16-.95,0-1.28.66-1.22-1.66-3.71,1.46-3.81,5.42-.18,6.87.82,7,4.44a17.89,17.89,0,0,1,0,2.43,3.67,3.67,0,0,1-3.1,3.23c-5,.91-5.34.63-5.32-4.19Zm5.56.3a4.68,4.68,0,0,0-.28-2,1.54,1.54,0,0,0-1.72-.87c-1,.09-.59.87-.62,1.37-.06,1,0,2,0,3.07,0,.73.28.93,1,.89C227.78,156.46,227.66,155.18,227.73,154.12Z"/><path class="cls-1" d="M271.82,153.81c0-1.36,0-2.72,0-4.07,0-.78.28-1.06,1.05-1.05,1.9,0,3.81.05,5.71,0,1,0,1,.54,1,1.25s-.1,1.24-1.05,1.17-1.84,0-2.77,0c-.53,0-.77.19-.79.76s.31.72.81.71c.76,0,1.53,0,2.29,0s1.22,0,1.22,1-.36,1.26-1.25,1.2c-.71,0-1.42,0-2.12,0s-1,.2-1,.93.3,1,1,.93c1,0,2,0,2.93,0s1,.47,1,1.14-.16,1.18-1,1.18c-2,0-4,0-6,0-.78,0-1-.32-1-1.08C271.85,156.52,271.82,155.17,271.82,153.81Z"/><path class="cls-1" d="M310.84,159.12c-3.13,0-4.8-1.8-4.81-5.2s1.57-5.2,4.6-5.23c3.41,0,5.17,1.78,5.15,5.25C315.75,157.17,313.91,159.1,310.84,159.12Zm1.84-5.43a5.93,5.93,0,0,0-.17-1.15c-.28-.86-.7-1.59-1.79-1.55s-1.26.71-1.55,1.54a4.7,4.7,0,0,0,.19,3.31,1.57,1.57,0,0,0,2.75.29A4.16,4.16,0,0,0,312.68,153.69Z"/><path class="cls-1" d="M165.06,153.86c.29,4.42-3,6-6.7,5a3.43,3.43,0,0,1-2-1.55c-1.18-1.74-1.14-5.53.1-7a5.14,5.14,0,0,1,5.77-1.31C164.25,149.67,165.06,151.09,165.06,153.86Zm-6.54-.13c0,1.36,0,2.69,1.64,3,1.22.2,1.89-.7,2-2.39.09-2.13-.53-3.28-1.82-3.25a1.53,1.53,0,0,0-1.36.75A3.06,3.06,0,0,0,158.52,153.73Z"/><path class="cls-1" d="M193.11,148.7c3.2,0,4.84,1.72,4.87,5.13s-1.79,5.31-4.92,5.29-4.81-2-4.8-5.25S190.05,148.69,193.11,148.7Zm-1.94,5.21a3.15,3.15,0,0,0,.5,2,1.63,1.63,0,0,0,2.86,0,3.94,3.94,0,0,0,0-4.12,1.55,1.55,0,0,0-2.74,0A3.16,3.16,0,0,0,191.17,153.91Z"/><path class="cls-1" d="M215.36,148.74c1.27-.3,1.77.21,2.11,1.48.65,2.44,1.62,4.78,2.37,7.2.14.45.88,1.3,0,1.49s-2,.63-2.74-.63a2.16,2.16,0,0,0-3.69.13c-.68,1.19-1.79.6-2.58.46-1-.16-.19-1-.05-1.45.76-2.42,1.65-4.8,2.4-7.21C213.54,149.05,214.08,148.39,215.36,148.74Zm0,3.93c-.58.89-1,1.62-.55,2.41.19.31.78.23,1-.07C216.45,154.19,215.69,153.57,215.36,152.67Z"/><path class="cls-1" d="M259.85,148.73a1.45,1.45,0,0,1,1.93,1.19c.75,2.53,1.71,5,2.55,7.5.17.49.78,1.28.07,1.47s-2.25.65-2.69-.51-1.28-1-2.08-1-1.36-.22-1.72.92c-.4,1.3-1.82.75-2.69.51s-.08-1,.06-1.46c.73-2.37,1.58-4.69,2.32-7C258,149.15,258.52,148.37,259.85,148.73Zm0,3.9c-.54.81-1.12,1.54-.66,2.42.18.36,1,.31,1.16.06C260.83,154.24,260.24,153.49,259.84,152.63Z"/><path class="cls-1" d="M354.46,148.77c1.21-.31,1.7.15,2,1.24.81,2.67,1.78,5.3,2.72,7.93.29.83,0,1.11-.77,1s-2,.56-2.36-1.12c-.2-.91-1.54-.31-2.36-.43-.61-.1-1,.13-1.11.84s-2.41,1.07-2.93.59c-.25-.23-.14-.44,0-.71.94-2.64,1.9-5.28,2.76-7.95C352.77,149,353.21,148.27,354.46,148.77Zm.05,3.57a3.47,3.47,0,0,0-.85,2.16c-.12.56.18.74.72.73s1.07-.11.84-.78S355.2,152.93,354.51,152.34Z"/><path class="cls-1" d="M149.49,148.69a3.26,3.26,0,0,1,3.09,1.3c.35.55,1.17,1.4.54,1.77s-1.7,1.25-2.66-.09c-.85-1.19-2.28-.8-2.71.59a4.49,4.49,0,0,0-.08,3.15c.26.63.48,1.21,1.27,1.28a1.54,1.54,0,0,0,1.69-1c.58-1.83,1.55-.46,2.26-.28,1.21.3.43,1.1.17,1.61-1.39,2.76-5.85,2.95-7.59.36a6.53,6.53,0,0,1-.35-6.49C145.86,149.12,147.49,148.66,149.49,148.69Z"/><path class="cls-1" d="M178.45,153.74c0-1.35,0-2.7,0-4.06,0-.53.06-1,.76-1a27.18,27.18,0,0,1,4.86.15c1.83.42,2.34,1.27,2.17,3.51-.12,1.7-1.11,2.93-2.73,2.77-2-.19-2.38.66-2.17,2.34.13,1-.06,1.66-1.36,1.58-1.1-.07-1.69-.29-1.56-1.58a35.87,35.87,0,0,0,0-3.74Zm2.89-1.66c-.14.71.15,1,.87.93s1.15-.23,1.14-1-.54-1-1.17-1.05C181.18,150.78,181.38,151.52,181.34,152.08Z"/><path class="cls-1" d="M368.73,191.83a1.72,1.72,0,0,1,2.16,1.41,2.27,2.27,0,0,1-1.22,2.72,1.82,1.82,0,0,1-2.45-.48c-.23-.25-.66-.64-.38-1a.69.69,0,0,1,1.12.15.92.92,0,0,0,1.27.35c.56-.24.55-.78.49-1.26-.1-1-.66-1.2-1.48-.77-1.07.56-1.61.44-1.53-.94,0-.58.36-1.5-.46-1.69s-1.06.75-1.38,1.33a9,9,0,0,0-1.16,3c-.07.5-.08,1.3-.79,1.16s-.28-.82-.2-1.3a7.77,7.77,0,0,1,1.39-3.26c.52-.73.36-1.07-.52-1.12a5.53,5.53,0,0,1-2.25-.19.34.34,0,0,0-.51.37c.14,1-.75,1.95.06,3.06.59.79-.28,2.39-1.36,2.68a1.91,1.91,0,0,1-2.58-1c-.11-.25-.48-.58-.08-.85a.57.57,0,0,1,.84.24c.5,1,1.3,1.11,1.93.37s.48-1.49-.58-1.91c-.6-.24-.77-.61,0-.95a1,1,0,0,0,.38-1.71c-.51-.55-1.18-.39-1.61.31-.21.35-.5.7-.87.29s-.08-.72.17-1a1.85,1.85,0,0,1,2.19-.66,3.26,3.26,0,0,0,3,.08,3.4,3.4,0,0,1,1.76,0,50.25,50.25,0,0,0,5.35,0c.39,0,1.12-.39,1.11.44,0,.65-.66.34-1,.4a8,8,0,0,1-1,0c-.7,0-.9.46-.85,1.1S368.23,191.93,368.73,191.83Z"/><path class="cls-1" d="M335,153.74v-3.25c0-1.74.64-2.18,2.36-1.79.72.16.61.66.61,1.11,0,1.84.07,3.68,0,5.52,0,.89.19,1.32,1.15,1.21a11.88,11.88,0,0,1,1.79,0c.67,0,1.55-.36,1.48,1-.06,1.12-.39,1.53-1.52,1.47-1.62-.07-3.25-.06-4.87,0-.79,0-1.06-.3-1.05-1,0-1.41,0-2.82,0-4.22Z"/><path class="cls-1" d="M329,153.76c0-1.36.05-2.71,0-4.06-.06-1.15.68-1,1.38-1s1.74-.47,1.72,1c0,2.76,0,5.52,0,8.28,0,1.45-1,.91-1.72,1s-1.42.13-1.36-1c.08-1.4,0-2.82,0-4.22Z"/><path class="cls-1" d="M372.3,153.75c0-1.3.05-2.6,0-3.89s.58-1.23,1.43-1.15,1.73-.35,1.72,1c0,2.76,0,5.52,0,8.27,0,1.4-1.07.89-1.77,1s-1.41.07-1.37-1C372.34,156.57,372.3,155.16,372.3,153.75Z"/><path class="cls-1" d="M290.36,153.89c0,1.2-.05,2.39,0,3.59.06,1-.07,1.62-1.37,1.56-1.08-.06-1.68-.16-1.62-1.5.12-2.55.1-5.1,0-7.65,0-1.31.72-1.17,1.56-1.19s1.51-.07,1.44,1.12c-.09,1.35,0,2.72,0,4.07Z"/><path class="cls-1" d="M130.2,153.94c0,1.36,0,2.71,0,4.06.05,1.16-.72,1-1.41,1s-1.61.41-1.6-.92c0-2.82,0-5.64,0-8.46,0-1.33,1-.82,1.64-.88s1.42-.14,1.36,1C130.15,151.12,130.21,152.53,130.2,153.94Z"/><path class="cls-1" d="M344.52,153.7c0-1.3.09-2.61,0-3.89s.61-1.13,1.4-1.11,1.63-.18,1.59,1.15c-.08,2.7-.07,5.41,0,8.11,0,1.23-.75,1.06-1.52,1s-1.53.15-1.45-1.08c.08-1.41,0-2.82,0-4.22Z"/><path class="cls-1" d="M376.87,192c0-.71,0-1.41,0-2.12a.51.51,0,0,1,.48-.55c.35,0,.7.13.68.52-.1,1.76.4,3.57-.32,5.29a1.81,1.81,0,0,1-2.16,1,1.9,1.9,0,0,1-1.58-1.64c-.07-.37-.07-.82.39-.95s.65.27.7.64c.08.64.34,1,1,.92s.75-.65.76-1.2V192Z"/><path class="cls-1" d="M392.49,58l3,2.57c-1.06-.78-2.37-1.3-2.93-2.59Z"/><path class="cls-1" d="M395.34,152.18a1.12,1.12,0,0,1-1.29,1.33l0,0,1.3-1.32Z"/><path class="cls-1" d="M395.37,152.21,396,152s0,.11,0,.14a.42.42,0,0,1-.64.06Z"/><path class="cls-1" d="M396,61.48c-.06-.06-.15-.1-.17-.17s0-.14.06-.22.16.09.18.16S396,61.4,396,61.48Z"/><path class="cls-1" d="M397.2,62.79a1.31,1.31,0,0,1-.09-.28s.06-.07.09-.11a1.43,1.43,0,0,1,.09.27S397.23,62.75,397.2,62.79Z"/><path class="cls-1" d="M396.66,62a.77.77,0,0,1-.19,0s-.07-.09-.06-.12a.65.65,0,0,1,.13-.16Z"/><path class="cls-1" d="M104,253.16a2.69,2.69,0,0,1-1.59,0,8.62,8.62,0,0,1-4.49-3.3c-2-2.78-2.85-6.12-3.93-9.32-.68-2-.46-2.18,1.62-2.75,3.89-1.08,7.24-2.88,9-6.88a4.77,4.77,0,0,0-2.23-6.29,11.92,11.92,0,0,0-6-1,18.89,18.89,0,0,0-14.45,8.37c-1.91,2.77-1,4.68.43,7,.24.39.69.84,1.21.58s.23-.77.11-1.17a3.86,3.86,0,0,1,0-1.91,12.77,12.77,0,0,1,5.13-7.57c.35-.28.61-.95,1.19-.56s.24,1,.07,1.46c-1.36,4.18-2.56,8.4-4.3,12.45a18.81,18.81,0,0,0-1.72,5c-.17,1.38.56,2.23,2,2.54s1.5-.58,1.75-1.61a55.34,55.34,0,0,1,1.69-5.35c.14-.39.17-1.12.8-1.06s.64.68.82,1.11c.71,1.69,1.32,3.42,2.09,5.09,1.34,2.93,3,5.55,6.45,6.43a.56.56,0,0,1,.44.6h3.59c0-.45.43-.6.74-.8.46-.29.81-.68.51-1.19S104.32,253.07,104,253.16ZM92.46,235c.67-1.64,1.14-3.34,1.92-4.95.51-1.08.8-2.32-.31-3.38-.75-.72-.38-1.27.46-1.54a8.32,8.32,0,0,1,2.83-.59c3.48.21,4.87,3.24,3.49,6.62-1.3,3.18-4,4.66-7.22,5.33C92.28,236.8,91.92,236.34,92.46,235Z"/><path class="cls-1" d="M233,240.55a31.46,31.46,0,0,1-4.23,4.25c-.46.37-.94.71-1.45.38s0-.87.15-1.28c.58-2,1.73-3.93.92-6.23a4,4,0,0,0-6.34-2.1c-2,1.39-2.84,3.6-4.23,5.42-1.72,2.22-3.21,4.62-5.33,6.49-.49.43-1,1.35-1.71.94s-.09-1.34.09-1.87q2.64-7.77,5.49-15.47c1.31-3.52,1.15-4.39-1.43-5.55-1.16-.52-1.76-.17-1.85,1.08a39.09,39.09,0,0,1-2.38,9.22c-.32.95-.68,1.4-1.84.59-2.93-2-4.26-1.48-5.52.11A21,21,0,0,0,201,240a34.21,34.21,0,0,1-5.84,8.07c-.38.41-.74.92-1.32.52s-.18-1,0-1.48c.28-.81.6-1.61.91-2.41a63,63,0,0,0,2.46-6.82c.26-1,.32-1.89-.7-2.4s-1.68-1.06-2.86,0a41.26,41.26,0,0,0-5,5.86,2.87,2.87,0,0,1-1.65,1.27,2.25,2.25,0,0,1,.27-1.52c.35-1.13.86-2.21,1.13-3.35.3-1.29-.52-2-1.61-2.45a1,1,0,0,0-1.48.78,21.42,21.42,0,0,1-4.43,8.1,25.5,25.5,0,0,1-3.52,4c-.37.3-.77.47-1.17.16a.77.77,0,0,1-.11-1c1.15-2.26,1.75-4.73,2.72-7.06a6.37,6.37,0,0,0,.62-3c-.07-1-.94-1.37-1.71-1.71a.82.82,0,0,0-1.22.44c-.64,2-1.41,1.06-2.36.21-1.72-1.53-3.75-1.57-5-.07a21.79,21.79,0,0,0-2.78,4.08c-1.39,2.94-3.82,4.88-6.12,7a5.1,5.1,0,0,1-4.09,1.11c-.86-.08-1.87-.11-2.23-1s.68-1.35,1.22-1.88c2.43-2.34,5.22-4.31,7.34-7a1.69,1.69,0,0,0,.37-2.06,2.08,2.08,0,0,0-2.18-1.1c-.75.11-1.49.35-2.24.4-2.21.14-4.44,1.11-6.66-.09-.47-.26-.91-.13-1.17.62-1.6,4.56-4.75,8.11-7.77,11.74-.47.57-1.12.92-1.69.56s-.19-1,0-1.6c1-2.76,2.08-5.53,3.08-8.31a2.48,2.48,0,0,0-1.5-3c-1.46-.53-1.48.82-1.72,1.51-1.47,4.17-4.24,7.46-7.13,10.65-.3.34-.78,1-1.33.64s-.19-1,0-1.51c2-5.69,3.89-11.4,5.89-17.08.65-1.86,1.1-2.52-1.57-4.1-1.33-.78-1.91-.6-2,.93-.24,2.51-1.17,4.81-1.77,7.21a29.18,29.18,0,0,1-8.39,14.09c-.46.44-.95.89-1.53.43s-.09-.88.09-1.33c1-2.45,1.94-4.9,2.86-7.37a6.33,6.33,0,0,0,.4-2.06,2.08,2.08,0,0,0-1.75-2.06c-.57-.16-1.18-.08-1.34.56-.51,2-1.26.95-2.06.23-2-1.78-4-1.71-5.56.29a16,16,0,0,0-2.72,4.47,12.19,12.19,0,0,1-7.48,7.46c-.74.29-1.46.53-2.09-.19s-.14-1.61,0-2.42.74-1.09,1.55-1.05c2.43.1,4.18-1.16,5.64-2.92a3.91,3.91,0,0,0,0-5.45c-1.31-1.59-2.87-1.8-4.93-.73a7.38,7.38,0,0,0-1.94,1.7,17.57,17.57,0,0,0-3.71,7.2c-.86,2.81,2.13,6.1,5,5.48a9.33,9.33,0,0,0,4.67-2.72c.44-.43.58-.71,1.18.16,2,2.84,4,4.1,6.58.9.73-.91,1.5-.63,1.72.45.15.7.57.86,1.08,1,2.31.82,3.26.52,5-1.31,1-1,2-1.94,3.1-2.93a4.23,4.23,0,0,1,0,.79c-.2,1.57.11,3,1.67,3.67s2.67-.43,3.78-1.22,1.92-1.59,2.95-2.46c.2,2.86.57,3.35,2.64,3.84a3.25,3.25,0,0,0,3.06-1.1,40.64,40.64,0,0,0,7.65-9.94c.37-.63.73-1.41,1.56-1,2,.86,3.89,0,5.8-.38.44-.09.87-.3,1.14.2s-.14.72-.4.95c-1.6,1.44-3.24,2.83-4.82,4.28-1.89,1.73-4,3.17-5.71,5.14-.33.38-.52.72-.34,1.13.24.57.78.3,1.13.18,1.66-.55,3.2,0,4.78.39a6.93,6.93,0,0,0,5.46-.55c2-1.11,3.3-2.88,5.24-4.41-.39,2-.41,2,.16,2.76,2.37,3,4,3.23,6.27.55a1.22,1.22,0,0,1,.36-.32c.56-.29,1-.25,1.32.4A3.2,3.2,0,0,0,177,249.8c1.51-.94,2.37-2.6,4-3.47.3.76,0,1.47.29,2.15a2.58,2.58,0,0,0,2,1.61c1.05.15,1.14-.74,1.42-1.44.16-.39.49-.71.69-1.09,1.19-2.27,3.38-3.74,4.73-5.91a5.18,5.18,0,0,1,2.62-2.25,8.89,8.89,0,0,1-.66,2.43c-.69,1.52-1.35,3-1.95,4.61a2.82,2.82,0,0,0,.89,3.63c1.23.9,2.33.62,3.54-.19,1.39-.93,2.25-2.41,3.67-3.31l.46,1.07c1.35,3,3.72,3.4,6,1,.11-.12.25-.21.36-.32.61-.6,1-.84,1.52.23.79,1.55,3,2,4.6,1.24a9.78,9.78,0,0,0,3.63-3.36c.75-1,1-.85,1.26.33,1.05,4.41,5.26,4.71,7.9,2a4.48,4.48,0,0,1,2-1.36c2.67-.65,4.48-2.52,6.11-4.48.79-.93,2.09-1.74,2-3.32C233.41,239.64,233.29,240.2,233,240.55Zm-127.41.18c.8-1,1.57-2.06,2.37-3.08a.89.89,0,0,1,1.05-.2c.4.12.27.52.31.83a5.37,5.37,0,0,1-2.86,3.5.71.71,0,0,1-.83-.33C105.47,241.2,105.39,241,105.59,240.73Zm16.2-.48c-1.55,2.45-3.12,4.88-4.88,7.19-.36.47-.8.92-1.48.75-.44-.12-.24-.53-.27-.74,0-1.44.74-2.55,1.18-3.74a17.94,17.94,0,0,1,2.91-5.18,1.73,1.73,0,0,1,2.55-.4C122.67,238.72,122.27,239.49,121.79,240.25Zm53.18-.4a76.26,76.26,0,0,1-5.25,7.74c-.36.44-.75.83-1.37.57-.38-.15-.31-.52-.25-1.25,1-2.8,2-6,4.35-8.63a1.76,1.76,0,0,1,2.37-.18C175.49,238.49,175.31,239.3,175,239.85Zm34.24,0a32.8,32.8,0,0,1-5.3,8.08.87.87,0,0,1-1,.28c-.47-.19-.33-.61-.34-1a23.42,23.42,0,0,1,4.5-8.81,1.55,1.55,0,0,1,2.08-.28C209.73,238.51,209.46,239.21,209.21,239.81Zm10.81,9c-.8,0-1-.48-.82-1,.17-.71.21-1.62,1.29-1.57.64,0,1.13.33,1.1,1.12C221.54,248.44,220.64,248.51,220,248.8Zm3.86-4a1.1,1.1,0,0,1-1.59.64,1.25,1.25,0,0,1-.73-1.74,18.24,18.24,0,0,1,1.08-1.8c.79-1.36.62-2.12-.84-2.65s-1.09-1.25-.32-2a8.93,8.93,0,0,1,2.14-1.44c1.16-.56,2.06.07,2.16,1.4l.09,1.29C225.89,240.87,224.88,242.85,223.88,244.82Z"/><path class="cls-1" d="M328.08,240.11c-.32-.28-.55.14-.77.35a12.81,12.81,0,0,1-2.8,2.17c-.53.26-1.07.52-1.44,0-1-1.57-2.05-3.16-3-4.81a2.11,2.11,0,0,1,.22-1.85c.65-1.53,1.22-3.1,1.74-4.68a2.93,2.93,0,0,0-.49-2.89c-.7-.75-1.69-.38-2.56,0-3.58,1.69-4.79,5.4-2.86,9.1a3,3,0,0,1,0,3.45,21.22,21.22,0,0,1-3.76,3.87c-.39.36-.9.67-1.3.38s-.16-.93,0-1.44a10.28,10.28,0,0,0,1.07-5.16,4.07,4.07,0,0,0-4.31-3.79c-2.16.12-3.45,1.6-4.47,3.26a36.14,36.14,0,0,1-4,6c-1.13,1.21-2.22,2.48-3.34,3.72-.41.45-.9,1-1.53.63s-.33-1.09-.23-1.58a25.49,25.49,0,0,1,.94-2.75c.72-2.11,1.85-4.12,1.65-6.47-.15-1.81-2.1-3.11-3.41-2.17a11.2,11.2,0,0,0-2.59,2.38c-.83,1.09-1.44,2.46-2.75,3.33a4,4,0,0,1,.49-2.65c1.13-3.18,2.27-6.36,3.3-9.57a3,3,0,0,0-2.62-3.58.93.93,0,0,0-1.13.87,71.07,71.07,0,0,1-2.08,8.12,27.65,27.65,0,0,1-5.56,10.84c-.89,1-1.74,2-2.62,3.05-.25.29-.62.56-1,.43-.52-.18-.4-.75-.3-1.13a15.86,15.86,0,0,1,.84-2.43c1.07-2.41,1.84-4.94,2.69-7.43a1.6,1.6,0,0,0-.83-2.19c-.81-.35-1.48-1.08-2.58-.13a33.46,33.46,0,0,0-5.27,5.89,3.63,3.63,0,0,1-2.07,1.66c.68-1.86,1.29-3.45,1.85-5.07a2.29,2.29,0,0,0-1.72-2.54c-1.08-.3-1.19.39-1.44,1.2a15.67,15.67,0,0,1-5.89,8.23c-.45.32-.92.83-1.42.45s-.06-1,.12-1.45c.58-1.61,1.33-3.19,1-5-.39-2.41-1.71-4.39-4.69-3.92a5.6,5.6,0,0,0-3.5,2.37c-1.25,1.61-1.77,3.73-3.68,4.86s-1.89,1.22-3-.68a4,4,0,0,0-.41-.51c-1.69-2-2.88-4-.95-6.75a6.37,6.37,0,0,0,.91-3.88c-.11-2.26-1.17-2.89-3.18-1.78-3.59,2-4.67,5.54-2.67,9.23.53,1,.91,1.83.18,2.82-.13.19-.25.36-.07.57a.37.37,0,0,0,.56.07c1.46-1,1.79.27,2.14,1.17.45,1.13,1.41,2.45-.25,3.38a9.56,9.56,0,0,0-2,1.57,2.6,2.6,0,0,0-.41,3.15c.5,1,1.63.79,2.49.63,2.25-.43,4.66-3.38,4.81-5.74.1-1.47.1-1.47,1.67-1.68a2.24,2.24,0,0,1,0,.46c-.84,2.48-.35,4.35,1.5,5.73a4,4,0,0,0,5.43-.62c2.14-2.16,5.39-2.2,7.37-4.51a14.71,14.71,0,0,1-.28,2.53c-.27,1.51.61,2.32,1.82,2.79s1.51-.57,1.87-1.42c.15-.34.43-.62.61-.95,1.24-2.31,3.45-3.85,4.83-6.07a3.34,3.34,0,0,1,2.31-1.72c-.36,2.4-1.64,4.34-2.33,6.49-.34,1.05-.66,2.05.15,3.05,1.39,1.71,2.9,1.68,4.84.07,1.29-1.05,2.19-2.49,3.79-3.81-.15.78-.2,1.15-.3,1.51a2.44,2.44,0,0,0,1.45,3.12c1.42.48,1.69-.68,2.17-1.58a43.57,43.57,0,0,1,6.67-9.26,8,8,0,0,1-1.15,3.75,6.86,6.86,0,0,0-1.06,4.94c.48,2.44,4,3.19,6,1.48,1.28-1.13,2.27-2.56,3.71-3.49a2.85,2.85,0,0,1,.76,1.48c1.09,2.9,3.71,3.81,6.36,2.2,1.2-.73,2-2.21,3.36-2.46,2.88-.54,4.47-2.74,6.24-4.6,2.27-2.37,2.13-2.5,3.31.48a1,1,0,0,0,.08.14c.68,1.15.3,1.85-.85,2.46a4.88,4.88,0,0,0-2.42,2.5,1.94,1.94,0,0,0,1.81,2.79c2.6,0,5.59-2.87,5.7-5.71a2.36,2.36,0,0,1,1.34-2.12c1-.66,2-1.4,3-2.15A.64.64,0,0,0,328.08,240.11ZM244,247.64c-.27.68-.4,1.63-1.44,1.82a.62.62,0,0,1-.74-.78c.31-.77.68-1.62,1.61-1.86C244,246.68,244,247.12,244,247.64Zm-.25-12.2c-.58-.05-.42-.5-.47-.85s-.12-.74-.13-.77a7.58,7.58,0,0,1,1-3.86c.29-.53.66-.87,1.29-.7s.63.7.59,1.18a13,13,0,0,1-1.35,4.44A.89.89,0,0,1,243.77,235.44Zm11.33,11.93c-.12,1-1,1.24-1.75,1.37s-.6-.55-.59-1c.12-.68.17-1.49,1.16-1.37C254.47,246.39,255.2,246.59,255.1,247.37Zm4.25-9.15a14.62,14.62,0,0,1-2.29,6.8.92.92,0,0,1-1.5.3c-.55-.36-1-.71-.57-1.42s.71-1.19,1.07-1.79c.89-1.48.63-2.46-1-3-1.28-.39-1-.88-.34-1.54a11.47,11.47,0,0,1,1.35-1.16,2.39,2.39,0,0,1,2.54-.54C259.56,236.39,259.36,237.35,259.35,238.22Zm44.25,10.53c-.48.13-.73-.34-.63-.85.13-.69,0-1.59,1.2-1.64.48.1,1.14.27,1.16,1C305.35,248.32,304.37,248.54,303.6,248.75Zm3.72-3.71a.92.92,0,0,1-1.38.4c-.58-.35-1.06-.79-.72-1.54a15.41,15.41,0,0,1,1-1.83c.93-1.41.7-2.44-.94-2.9-1.47-.42-.86-1.09-.36-1.71a5.17,5.17,0,0,1,1.39-1.09,2.46,2.46,0,0,1,2.56-.42c.95.47.69,1.36.76,2.46A15.89,15.89,0,0,1,307.32,245Zm12.07,2.38c-.24.85-.37,1.86-1.5,2-.51.07-.59-.41-.55-.79a2.08,2.08,0,0,1,1.42-1.84C319.27,246.81,319.49,247.07,319.39,247.42Zm-.13-12.08c-.39-.07-.51-.35-.54-.7s-.05-.86-.08-1.3c-.18-1.38.6-2.47,1.15-3.62a.76.76,0,0,1,.95-.43.81.81,0,0,1,.58.88,12.16,12.16,0,0,1-1.44,4.74C319.75,235.13,319.59,235.39,319.26,235.34Z"/><path class="cls-1" d="M144.63,233.14c1.49,0,3.16-1.9,3.1-3.56,0-1.08-.55-1.93-1.72-1.94-1.69,0-3.84,2-3.83,3.51A2.39,2.39,0,0,0,144.63,233.14Z"/><path class="cls-1" d="M330.32,246.84c-1.21-.24-1.63.86-2.29,1.59-.83.9-.61,1.62.39,2.22,1.26.75,2.4.21,3.34-1.63C332.45,247.68,331.94,246.86,330.32,246.84Z"/></g></g></svg>