<svg xmlns="http://www.w3.org/2000/svg" viewBox="0 0 920.47 197.57"><defs><style>.cls-1{fill:#033a1e;}</style></defs><g id="Camada_2" data-name="Camada 2"><g id="Camada_1-2" data-name="Camada 1"><path class="cls-1" d="M63.19,51.63c0,21.59-9,36.28-30.14,36.28-20.38,0-29.13-15.07-29.13-36.47,0-19.35,9.24-35.27,30.06-35.27C54.14,16.17,63.19,31.58,63.19,51.63Zm-42.7-.17c0,14.08,4.1,24,13.13,24,9.92,0,13.07-9.06,13.07-23.92,0-13.07-3.09-22.81-13.28-22.81C24,28.69,20.49,37.94,20.49,51.46ZM52.92,77.59,68,88.15l-8.5,10.66L40.21,85Z" transform="translate(-3.92 -12.58)"/><path class="cls-1" d="M117.18,70.71c0,8.13.06,13.28.17,16.05H102.22A44.46,44.46,0,0,1,101.7,81c-3.21,5.19-7.51,6.7-13.7,6.7-10.25,0-15.54-6.27-15.54-17.91V33.58H88V67.12c0,5,1.55,8,6.13,8,4.8,0,7.39-2.85,7.39-10.79V33.58h15.64Z" transform="translate(-3.92 -12.58)"/><path class="cls-1" d="M141.8,63.77c0,5.89,1.64,12.15,8.37,12.15,5.39,0,6.83-3.52,7.41-5.75H172.7c-1.95,7.15-6.87,17.57-22.91,17.57-17.69,0-23.68-12.33-23.68-27.61,0-14.33,6.71-27.56,24.17-27.56,17.77,0,23,12.44,23,26.47,0,1.06-.09,3.89-.18,4.73ZM157.94,54c-.13-5.05-1.63-10-7.83-10-6.59,0-8,5.57-8.13,10Z" transform="translate(-3.92 -12.58)"/><path class="cls-1" d="M182.18,51.6c0-8.85,0-14.34-.18-18h15.14a78.08,78.08,0,0,1,.37,9c1.74-4.76,6.25-9.9,15.23-9.9V48.55C202.42,48.27,197.8,51,197.8,62.47V86.76H182.18Z" transform="translate(-3.92 -12.58)"/><path class="cls-1" d="M244,86.76V45.47h-6.62V33.58H244V29.44C244,19,249,12.58,260.52,12.58a24.73,24.73,0,0,1,6.3.77V25.17a16.06,16.06,0,0,0-3.13-.29c-3.3,0-4.18,2.08-4.18,5.08v3.62h8V45.47h-8V86.76Z" transform="translate(-3.92 -12.58)"/><path class="cls-1" d="M274.13,33.58h15.63V86.76H274.13Zm0-20.34h15.62v13H274.16Z" transform="translate(-3.92 -12.58)"/><path class="cls-1" d="M344.76,67.83c-1.1,9.55-6.47,19.88-22.79,19.88-16.81,0-23.26-10.9-23.26-27.55s8.58-27.61,24.12-27.61c18.3,0,21.77,13.5,21.94,19.93H329.34c-.28-4-1.62-8.33-6.72-8.33-5.83,0-8,5.59-8,15.59,0,11.83,2.67,16.44,7.81,16.44s6.41-4,7.18-8.35Z" transform="translate(-3.92 -12.58)"/><path class="cls-1" d="M395.17,72.79c0,3.55.2,10.46.64,14H382.06a37.27,37.27,0,0,1-.77-5.57c-2.44,4-7,6.52-14,6.52-12.1,0-16.9-7.92-16.9-16.23,0-10.16,6.91-17.61,24.08-17.61,1.41,0,3.31,0,5.37,0V49.77c0-3.74-1.05-6.56-6.07-6.56s-6.13,2.84-6.49,6.33h-14.9c.43-8.34,5.24-17,21.74-17,13.31,0,21,4.85,21,17.25Zm-14.9-9.34c-1.54-.05-3-.05-5-.05-7.62,0-9.32,3.31-9.32,6.72,0,3.14,1.73,6,6.21,6,6.84,0,8.13-4.71,8.13-11.3Z" transform="translate(-3.92 -12.58)"/><path class="cls-1" d="M406.77,51.6c0-8.85,0-14.34-.17-18h15.14a78.08,78.08,0,0,1,.37,9c1.74-4.76,6.25-9.9,15.22-9.9V48.55C427,48.27,422.4,51,422.4,62.47V86.76H406.77Z" transform="translate(-3.92 -12.58)"/><path class="cls-1" d="M482.47,82.79v23.7H466.92V48.93c0-7.14.07-11.89-.1-15.35H482c.19,1.53.33,4,.41,6.2,1.71-3.21,5.56-7.21,14-7.21,10.58,0,18.77,8.22,18.77,26.92S506,87.74,494.11,87.74C488,87.74,484.27,85.73,482.47,82.79Zm16.86-22.91c0-11.09-3.41-14.94-8.78-14.94-6.77,0-8.69,4.09-8.69,15.08,0,10.53,1.79,15.53,8.39,15.53C496.33,75.55,499.33,70.57,499.33,59.88Z" transform="translate(-3.92 -12.58)"/><path class="cls-1" d="M570.93,59.53c0,16.6-7.52,28.27-24.83,28.27-17.59,0-24.38-12.13-24.38-28,0-14.43,7.43-27.26,25.07-27.26C563.77,32.57,570.93,44.62,570.93,59.53Zm-33.35,0c0,11.05,2.83,16.36,9,16.36,5.69,0,8.55-5.33,8.55-16.21,0-10.61-2.65-15.24-8.85-15.24C540.51,44.48,537.58,49.67,537.58,59.57Z" transform="translate(-3.92 -12.58)"/><path class="cls-1" d="M579.79,51.6c0-8.85,0-14.34-.18-18h15.14a78.08,78.08,0,0,1,.37,9c1.74-4.76,6.25-9.9,15.23-9.9V48.55C600,48.27,595.41,51,595.41,62.47V86.76H579.79Z" transform="translate(-3.92 -12.58)"/><path class="cls-1" d="M685.31,13.24V71.51c0,6.69.07,12.25.17,15.25H670.34a50.63,50.63,0,0,1-.49-5.62c-2.3,4.08-6,6.64-13.81,6.64-12.87,0-19-10.91-19-27.62,0-16.36,7.73-27.59,21.46-27.59,6.85,0,10.07,2.27,11.23,4.25V13.24ZM652.93,59.78c0,10.08,2.43,15.74,8.66,15.74,7.32,0,8.73-5,8.73-15.68S668.93,44.9,662,44.9C656.43,44.9,652.93,49.1,652.93,59.78Z" transform="translate(-3.92 -12.58)"/><path class="cls-1" d="M710.18,63.77c0,5.89,1.64,12.15,8.37,12.15,5.39,0,6.83-3.52,7.41-5.75h15.12c-2,7.15-6.87,17.57-22.91,17.57-17.69,0-23.68-12.33-23.68-27.61,0-14.33,6.71-27.56,24.17-27.56,17.77,0,23,12.44,23,26.47,0,1.06-.09,3.89-.18,4.73ZM726.32,54c-.13-5.05-1.63-10-7.83-10-6.59,0-8,5.57-8.13,10Z" transform="translate(-3.92 -12.58)"/><path class="cls-1" d="M750.55,50.18c0-11-.06-14.1-.17-16.6h15.19a43.07,43.07,0,0,1,.47,6c2-3.57,6.58-7.06,13.78-7.06,10.67,0,15.82,7,15.82,18.33V86.76H780V53.89c0-5.25-1.08-8.79-6.5-8.79-4.84,0-7.34,2.57-7.34,10.6V86.76H750.55Z" transform="translate(-3.92 -12.58)"/><path class="cls-1" d="M801.74,33.58h7V19.84h15.52V33.58H833V45.46h-8.67V71.11c0,3.29.75,4.73,4.82,4.73a15.1,15.1,0,0,0,2.83-.19V86.27a31.57,31.57,0,0,1-9,1.1c-10.74,0-14.16-4.18-14.16-14.29V45.46h-7Z" transform="translate(-3.92 -12.58)"/><path class="cls-1" d="M840,51.6c0-8.85,0-14.34-.17-18h15.14a81,81,0,0,1,.36,9c1.74-4.76,6.25-9.9,15.23-9.9V48.55c-10.32-.28-14.94,2.49-14.94,13.92V86.76H840Z" transform="translate(-3.92 -12.58)"/><path class="cls-1" d="M924.4,59.53c0,16.6-7.52,28.27-24.83,28.27-17.59,0-24.39-12.13-24.39-28,0-14.43,7.44-27.26,25.08-27.26C917.24,32.57,924.4,44.62,924.4,59.53Zm-33.35,0c0,11.05,2.83,16.36,9,16.36,5.69,0,8.54-5.33,8.54-16.21,0-10.61-2.64-15.24-8.84-15.24C894,44.48,891.05,49.67,891.05,59.57Z" transform="translate(-3.92 -12.58)"/><path class="cls-1" d="M275.46,135.58v58.28c0,6.69.07,12.24.17,15.25H260.49a53.57,53.57,0,0,1-.49-5.63c-2.3,4.09-6,6.64-13.81,6.64-12.87,0-19-10.9-19-27.62,0-16.35,7.72-27.58,21.45-27.58,6.85,0,10.07,2.26,11.23,4.25V135.58Zm-32.38,46.54c0,10.08,2.43,15.74,8.66,15.74,7.32,0,8.73-5,8.73-15.68s-1.39-14.94-8.31-14.94C246.59,167.24,243.08,171.44,243.08,182.12Z" transform="translate(-3.92 -12.58)"/><path class="cls-1" d="M328.9,195.13c0,3.56.2,10.47.64,14H315.79a39,39,0,0,1-.78-5.58c-2.43,3.95-7,6.53-14,6.53-12.1,0-16.9-7.92-16.9-16.24,0-10.16,6.91-17.61,24.08-17.61,1.41,0,3.31,0,5.37,0v-4.12c0-3.74-1.05-6.56-6.07-6.56s-6.13,2.83-6.49,6.32h-14.9c.43-8.34,5.24-17,21.74-17,13.31,0,21,4.85,21,17.24ZM314,185.8c-1.55-.05-3-.05-5-.05-7.62,0-9.33,3.3-9.33,6.71,0,3.15,1.74,6,6.22,6,6.84,0,8.13-4.71,8.13-11.31Z" transform="translate(-3.92 -12.58)"/><path class="cls-1" d="M351.06,192.54c.36,3.84,2.85,6.56,7.55,6.56,4,0,6.19-1.51,6.19-4.5s-2.49-4.38-9.57-6.51c-14.31-4.21-17.59-9.1-17.59-16.89,0-7.23,4.66-16.31,20.31-16.31,14.94,0,20.26,8.2,20.68,16.56H363.87c-.21-2.41-1.39-5.75-6.41-5.75-3.06,0-4.89,1.41-4.89,4s2,3.83,9.12,5.79C375.43,179.36,380,184.44,380,193c0,11-8.48,17-21.73,17-13.9,0-21.28-6.69-22.07-17.52Z" transform="translate(-3.92 -12.58)"/><path class="cls-1" d="M457.05,181.88c0,16.6-7.52,28.27-24.83,28.27-17.59,0-24.38-12.13-24.38-28,0-14.43,7.43-27.26,25.07-27.26C449.89,154.92,457.05,167,457.05,181.88Zm-33.34,0c0,11.05,2.82,16.37,9,16.37,5.68,0,8.54-5.34,8.54-16.21,0-10.62-2.65-15.24-8.85-15.24C426.63,166.83,423.71,172,423.71,181.91Z" transform="translate(-3.92 -12.58)"/><path class="cls-1" d="M465.91,135.58h15.62V161c2.16-3.13,6.05-6.09,13.46-6.09,12.93,0,19.11,11.07,19.11,25.93,0,17.36-6.78,29.21-21,29.21-7.33,0-10.24-3.14-11.88-5.63-.07,1.43-.18,3.13-.36,4.68H465.73c.1-3.72.18-10.83.18-15.71Zm32.44,45.9c0-8.8-2.3-14.2-8.76-14.2-6.75,0-8.75,4.61-8.75,15.12,0,10.83,2.21,15.49,8.62,15.49C495.67,197.89,498.35,192.28,498.35,181.48Z" transform="translate(-3.92 -12.58)"/><path class="cls-1" d="M523,174c0-8.86,0-14.34-.17-18H538a78.34,78.34,0,0,1,.36,9c1.74-4.76,6.25-9.9,15.23-9.9V170.9c-10.32-.28-14.94,2.48-14.94,13.92v24.29H523Z" transform="translate(-3.92 -12.58)"/><path class="cls-1" d="M601.42,195.13c0,3.56.2,10.47.64,14H588.31a39,39,0,0,1-.78-5.58c-2.43,3.95-7,6.53-14,6.53-12.1,0-16.9-7.92-16.9-16.24,0-10.16,6.91-17.61,24.08-17.61,1.41,0,3.31,0,5.37,0v-4.12c0-3.74-1-6.56-6.07-6.56s-6.13,2.83-6.49,6.32h-14.9c.43-8.34,5.24-17,21.73-17,13.32,0,21,4.85,21,17.24Zm-14.9-9.33c-1.55-.05-3-.05-5-.05-7.62,0-9.33,3.3-9.33,6.71,0,3.15,1.74,6,6.22,6,6.83,0,8.13-4.71,8.13-11.31Z" transform="translate(-3.92 -12.58)"/><path class="cls-1" d="M623.58,192.54c.36,3.84,2.85,6.56,7.55,6.56,4,0,6.19-1.51,6.19-4.5s-2.49-4.38-9.57-6.51c-14.31-4.21-17.59-9.1-17.59-16.89,0-7.23,4.66-16.31,20.31-16.31,14.94,0,20.26,8.2,20.68,16.56H636.39c-.21-2.41-1.39-5.75-6.41-5.75-3.06,0-4.89,1.41-4.89,4s2,3.83,9.12,5.79c13.74,3.85,18.26,8.93,18.26,17.53,0,11-8.48,17-21.73,17-13.91,0-21.28-6.69-22.07-17.52Z" transform="translate(-3.92 -12.58)"/><path class="cls-1" d="M671.58,186.75V185c0-6.88,2.47-11.08,8.94-18,3.56-3.84,5.28-6.73,5.28-10.23,0-4.07-1.83-6.7-5.92-6.7-4.36,0-6.47,3.15-6.8,9.13H658.86c.33-11,5.82-20.72,21.71-20.63s20.69,9.28,20.69,18.36c0,6.36-2,10.87-8.6,17.91-3.76,4-5.16,6.81-5.16,10.69v1.17Zm0,22.36V191.76H687.5v17.35Z" transform="translate(-3.92 -12.58)"/></g></g></svg>